# xmcd CD database file
#
# Track frame offsets:
#	150
#	34558
#	56047
#	84697
#	106630
#	127052
#	153236
#	186959
#	222852
#
# Disc length: 3321 seconds
#
# Revision: 0
# Processed by: cddbd v1.5.2PL0 Copyright (c) Steve Scherf et al.
# Submitted via: CDex 1.70beta2
#
DISCID=740cf709
DTITLE=L'arbre à 3 têtes - Semences
DYEAR=2006
DGENRE=Jazz
TTITLE0=L'arbre à 3 têtes
TTITLE1=Jazzistix
TTITLE2=Liberty S
TTITLE3=Why de nuit
TTITLE4=J Y
TTITLE5=Contradictions
TTITLE6=Ganjazz
TTITLE7=Ontime this time
TTITLE8=Another sound 5
EXTD=YEAR: 2006
EXTT0=
EXTT1=
EXTT2=
EXTT3=
EXTT4=
EXTT5=
EXTT6=
EXTT7=
EXTT8=
PLAYORDER=
